<svg id="Слой_1" data-name="Слой 1" xmlns="http://www.w3.org/2000/svg" viewBox="0 0 492.34 101.88"><defs><style>.cls-1{fill:#3471b0;}.cls-2{fill:#ad573f;}</style></defs><path class="cls-1" d="M141,64.22a18.93,18.93,0,0,0,9.43,11.65,18,18,0,0,0,8.69,1.95q7.78,0,12.19-3.7a19,19,0,0,0,6.09-9.85h7.11q-2.25,9-8.29,14t-17.1,4.92A29.48,29.48,0,0,1,147.18,81,21.51,21.51,0,0,1,139,74.89,25.39,25.39,0,0,1,134.31,66a37.35,37.35,0,0,1-1.52-10.73A35.41,35.41,0,0,1,134.31,45,26.66,26.66,0,0,1,139,36a23,23,0,0,1,8.18-6.36,27.39,27.39,0,0,1,11.91-2.41,25.79,25.79,0,0,1,12,2.57,23.15,23.15,0,0,1,8.07,6.72,26.53,26.53,0,0,1,4.46,9.54A38.32,38.32,0,0,1,184.71,57H139.9A26.39,26.39,0,0,0,141,64.22Zm35.22-19.75a19,19,0,0,0-3.67-6,18.33,18.33,0,0,0-27,0,20.49,20.49,0,0,0-3.78,6.05,27.48,27.48,0,0,0-1.86,7h37.7A21.76,21.76,0,0,0,176.19,44.47Z" transform="translate(-4.05 -5.23)"/><path class="cls-1" d="M183.7,28.77h8.91L209.2,48.88l16.26-20.11h8.92l-21,25.34,22.69,27.61h-9L208.75,59.45,190.81,81.72H182l22.58-27.5Z" transform="translate(-4.05 -5.23)"/><path class="cls-1" d="M243.85,28.77V38.83h.23a17.87,17.87,0,0,1,8.07-8.57,26.23,26.23,0,0,1,12.7-3,27.39,27.39,0,0,1,11.57,2.26,23.39,23.39,0,0,1,8.18,6.1,25.3,25.3,0,0,1,4.86,8.93,37.19,37.19,0,0,1,0,21.45,25.25,25.25,0,0,1-4.86,8.92A22.82,22.82,0,0,1,276.42,81a28,28,0,0,1-11.57,2.2,28.88,28.88,0,0,1-6.32-.71,23.64,23.64,0,0,1-5.87-2.16,19,19,0,0,1-4.8-3.59,15,15,0,0,1-3.21-5h-.23v32.28h-7.11V28.77Zm39,18.32a21.43,21.43,0,0,0-3.38-7.24,18,18,0,0,0-5.93-5.18,17.72,17.72,0,0,0-8.69-2A23.16,23.16,0,0,0,255,34.52a16.7,16.7,0,0,0-6.32,4.92,18.54,18.54,0,0,0-3.33,7.18,37.77,37.77,0,0,0-1,8.62,32,32,0,0,0,1.07,8.16,20.48,20.48,0,0,0,3.5,7.24,18.49,18.49,0,0,0,6.32,5.18,20.74,20.74,0,0,0,9.54,2,17.72,17.72,0,0,0,8.69-2,18.13,18.13,0,0,0,5.93-5.18,21.52,21.52,0,0,0,3.38-7.24,31.33,31.33,0,0,0,0-16.31Z" transform="translate(-4.05 -5.23)"/><path class="cls-1" d="M303,28.77V41.18h.22a20.79,20.79,0,0,1,8.41-9.95,23.81,23.81,0,0,1,13.6-3.18v6.47a23.23,23.23,0,0,0-8.8,1.18,20.06,20.06,0,0,0-6.83,3.95,17.73,17.73,0,0,0-4.46,6.1,18.87,18.87,0,0,0-1.58,7.75V81.72h-7.11V28.77Z" transform="translate(-4.05 -5.23)"/><path class="cls-1" d="M329.58,64.22A18.87,18.87,0,0,0,339,75.87a18.09,18.09,0,0,0,8.7,1.95q7.79,0,12.19-3.7A19.07,19.07,0,0,0,366,64.27h7.11q-2.26,9-8.29,14t-17.1,4.92A29.45,29.45,0,0,1,335.79,81a21.62,21.62,0,0,1-8.19-6.06A25.54,25.54,0,0,1,322.92,66a37,37,0,0,1-1.52-10.73A35.07,35.07,0,0,1,322.92,45a26.82,26.82,0,0,1,4.68-9,23.16,23.16,0,0,1,8.19-6.36,27.36,27.36,0,0,1,11.91-2.41,25.79,25.79,0,0,1,12,2.57,23.15,23.15,0,0,1,8.07,6.72,26.53,26.53,0,0,1,4.46,9.54A38.32,38.32,0,0,1,373.32,57H328.51A26,26,0,0,0,329.58,64.22ZM364.8,44.47a19,19,0,0,0-3.67-6,17.67,17.67,0,0,0-13.43-5.8,18.1,18.1,0,0,0-7.79,1.59,17.88,17.88,0,0,0-5.76,4.21,20.49,20.49,0,0,0-3.78,6.05,27.48,27.48,0,0,0-1.86,7h37.7A21.76,21.76,0,0,0,364.8,44.47Z" transform="translate(-4.05 -5.23)"/><path class="cls-1" d="M410.79,39.08a10.85,10.85,0,0,0-3.33-3.64,14.3,14.3,0,0,0-4.8-2.1,23.66,23.66,0,0,0-5.75-.67,25.48,25.48,0,0,0-4.8.46,15.68,15.68,0,0,0-4.46,1.54,9.27,9.27,0,0,0-3.27,2.82,7.24,7.24,0,0,0-1.24,4.31,5.64,5.64,0,0,0,1.18,3.64,10.26,10.26,0,0,0,3,2.52,20.08,20.08,0,0,0,3.95,1.69c1.43.45,2.75.81,3.95,1.08l9.48,2a28.82,28.82,0,0,1,6,1.49A19.91,19.91,0,0,1,416,57a14.13,14.13,0,0,1,3.78,4.31,12,12,0,0,1,1.47,6,12.36,12.36,0,0,1-2.15,7.34,16.71,16.71,0,0,1-5.47,4.92,24.66,24.66,0,0,1-7.51,2.72,42.39,42.39,0,0,1-8.24.82q-10.28,0-16.65-4.41T374,64.58h7.12q.43,6.57,5.24,9.9a20.33,20.33,0,0,0,11.91,3.34,28.67,28.67,0,0,0,5.36-.52,18.23,18.23,0,0,0,5.14-1.74,11.86,11.86,0,0,0,3.89-3.13,7.19,7.19,0,0,0,1.53-4.67,6.88,6.88,0,0,0-1.08-4,8.89,8.89,0,0,0-2.87-2.67,19.17,19.17,0,0,0-4.12-1.79c-1.55-.48-3.11-.89-4.69-1.23l-9.14-1.85a56.11,56.11,0,0,1-6.44-1.9,21.38,21.38,0,0,1-5.13-2.67,11.35,11.35,0,0,1-3.44-3.9A11.82,11.82,0,0,1,376,42.11a11.84,11.84,0,0,1,2-6.88,14.84,14.84,0,0,1,5.14-4.61,25,25,0,0,1,7.05-2.57,37.9,37.9,0,0,1,7.73-.82,31,31,0,0,1,8.19,1,19.39,19.39,0,0,1,6.66,3.18,16,16,0,0,1,4.57,5.33,18,18,0,0,1,1.92,7.49h-7.12A11.2,11.2,0,0,0,410.79,39.08Z" transform="translate(-4.05 -5.23)"/><path class="cls-1" d="M459.44,39.08a10.85,10.85,0,0,0-3.33-3.64,14.39,14.39,0,0,0-4.8-2.1,23.8,23.8,0,0,0-5.76-.67,25.3,25.3,0,0,0-4.79.46,15.68,15.68,0,0,0-4.46,1.54A9.31,9.31,0,0,0,433,37.49a7.24,7.24,0,0,0-1.24,4.31A5.65,5.65,0,0,0,433,45.44,10.13,10.13,0,0,0,436,48a19.83,19.83,0,0,0,4,1.69c1.43.45,2.74.81,3.95,1.08l9.48,2a29.13,29.13,0,0,1,6,1.49,19.84,19.84,0,0,1,5.3,2.82,14,14,0,0,1,3.79,4.31,12.07,12.07,0,0,1,1.46,6,12.36,12.36,0,0,1-2.14,7.34,16.74,16.74,0,0,1-5.48,4.92,24.59,24.59,0,0,1-7.5,2.72,42.47,42.47,0,0,1-8.24.82q-10.27,0-16.65-4.41t-7.28-14.16h7.11q.45,6.57,5.25,9.9a20.33,20.33,0,0,0,11.91,3.34,28.75,28.75,0,0,0,5.36-.52,18.28,18.28,0,0,0,5.13-1.74,11.9,11.9,0,0,0,3.9-3.13,7.24,7.24,0,0,0,1.52-4.67,7,7,0,0,0-1.07-4,9,9,0,0,0-2.88-2.67,19,19,0,0,0-4.12-1.79q-2.31-.72-4.68-1.23l-9.14-1.85a55.52,55.52,0,0,1-6.44-1.9,21,21,0,0,1-5.13-2.67,11.48,11.48,0,0,1-3.45-3.9,11.82,11.82,0,0,1-1.24-5.69,11.84,11.84,0,0,1,2-6.88,14.72,14.72,0,0,1,5.13-4.61,25.21,25.21,0,0,1,7.06-2.57,37.83,37.83,0,0,1,7.73-.82,30.9,30.9,0,0,1,8.18,1,19.39,19.39,0,0,1,6.66,3.18A15.86,15.86,0,0,1,466,36.77a17.73,17.73,0,0,1,1.92,7.49h-7.11A11.45,11.45,0,0,0,459.44,39.08Z" transform="translate(-4.05 -5.23)"/><path class="cls-1" d="M264.22,93.86h2.28V98l4-4.09h2.83l-4.46,4.27,4.85,5.93h-2.85l-3.65-4.53-.76.82v3.71h-2.28Z" transform="translate(-4.05 -5.23)"/><path class="cls-1" d="M278.12,104.25a2.3,2.3,0,0,1-.67-.1A2.17,2.17,0,0,1,277,104v-1.81a3,3,0,0,0,.38.15,2.23,2.23,0,0,0,.56.06,1.12,1.12,0,0,0,1.24-.84l-4.14-7.66h2.55l2.81,5.32,2.1-5.32h2.37l-3.22,7.49a10,10,0,0,1-.71,1.33,3.47,3.47,0,0,1-.78.9,2.65,2.65,0,0,1-.93.51A3.83,3.83,0,0,1,278.12,104.25Z" transform="translate(-4.05 -5.23)"/><path class="cls-1" d="M286.94,93.86h4.66a4.44,4.44,0,0,1,1.65.28,3,3,0,0,1,1.11.74,2.66,2.66,0,0,1,.62,1.05,3.76,3.76,0,0,1,0,2.42,2.7,2.7,0,0,1-.62,1,3,3,0,0,1-1.11.74,4.45,4.45,0,0,1-1.65.27h-2.39v3.66h-2.27Zm4,4.8a6,6,0,0,0,.75,0,1.8,1.8,0,0,0,.64-.23,1.15,1.15,0,0,0,.44-.46,1.9,1.9,0,0,0,0-1.57,1.15,1.15,0,0,0-.44-.46,1.8,1.8,0,0,0-.64-.23,6,6,0,0,0-.75,0h-1.77v3Z" transform="translate(-4.05 -5.23)"/><path class="cls-1" d="M298.05,93.86h2.27v3.69h2.43a5.14,5.14,0,0,1,1.45.19,3.44,3.44,0,0,1,1.16.59,2.71,2.71,0,0,1,.77,1,3.39,3.39,0,0,1,.29,1.44,3.62,3.62,0,0,1-.28,1.46,2.71,2.71,0,0,1-.77,1,3.39,3.39,0,0,1-1.2.6,5.62,5.62,0,0,1-1.53.19h-4.59Zm4.41,8.37a2.2,2.2,0,0,0,1.29-.33,1.29,1.29,0,0,0,.46-1.14,1.56,1.56,0,0,0-.13-.68,1.15,1.15,0,0,0-.37-.45,1.7,1.7,0,0,0-.56-.25,3.14,3.14,0,0,0-.7-.07h-2.13v2.92Z" transform="translate(-4.05 -5.23)"/><path class="cls-1" d="M309.3,93.86H317v1.89h-5.46v2.18h5v1.75h-5v2.5h5.57v1.88H309.3Z" transform="translate(-4.05 -5.23)"/><path class="cls-1" d="M320.13,93.86h4.66a4.44,4.44,0,0,1,1.65.28,3.18,3.18,0,0,1,1.11.74,2.79,2.79,0,0,1,.62,1.05,3.76,3.76,0,0,1,0,2.42,2.83,2.83,0,0,1-.62,1,3.18,3.18,0,0,1-1.11.74,4.45,4.45,0,0,1-1.65.27H322.4v3.66h-2.27Zm4,4.8a6,6,0,0,0,.75,0,1.88,1.88,0,0,0,.64-.23,1.15,1.15,0,0,0,.44-.46,1.9,1.9,0,0,0,0-1.57,1.15,1.15,0,0,0-.44-.46,1.88,1.88,0,0,0-.64-.23,6,6,0,0,0-.75,0H322.4v3Z" transform="translate(-4.05 -5.23)"/><path class="cls-1" d="M335.87,104.29a5.42,5.42,0,0,1-2.15-.41,4.63,4.63,0,0,1-1.59-1.12,5,5,0,0,1-1-1.68,6.07,6.07,0,0,1-.34-2.07,6.37,6.37,0,0,1,.34-2.12,5.11,5.11,0,0,1,1-1.71A4.55,4.55,0,0,1,333.72,94a5.6,5.6,0,0,1,3.75-.18,4.45,4.45,0,0,1,1.37.71,4,4,0,0,1,1,1.15,4.13,4.13,0,0,1,.49,1.57h-2.2a2,2,0,0,0-.26-.71,2.47,2.47,0,0,0-.51-.56,2.31,2.31,0,0,0-.69-.38,2.36,2.36,0,0,0-.8-.13,2.67,2.67,0,0,0-1.31.29,2.48,2.48,0,0,0-.86.78,3.29,3.29,0,0,0-.49,1.13,5.51,5.51,0,0,0-.15,1.3,5.13,5.13,0,0,0,.15,1.24,3.22,3.22,0,0,0,.49,1.1,2.58,2.58,0,0,0,.86.78,2.79,2.79,0,0,0,1.31.29,2.12,2.12,0,0,0,1.63-.63,2.84,2.84,0,0,0,.71-1.66h2.2a4.75,4.75,0,0,1-.45,1.74,4,4,0,0,1-2.34,2.13A5.14,5.14,0,0,1,335.87,104.29Z" transform="translate(-4.05 -5.23)"/><path class="cls-1" d="M343.41,93.86h2.27V98l4-4.09h2.84l-4.46,4.27,4.85,5.93H350.1l-3.65-4.53-.77.82v3.71h-2.27Z" transform="translate(-4.05 -5.23)"/><path class="cls-1" d="M358.14,93.86h2.33l3.87,10.2H362l-.78-2.27h-3.86l-.81,2.27h-2.29Zm2.46,6.26-1.3-3.74h0l-1.35,3.74Z" transform="translate(-4.05 -5.23)"/><path class="cls-1" d="M368.85,100a3,3,0,0,1-1.66-1,3.11,3.11,0,0,1-.63-2,3.18,3.18,0,0,1,.29-1.4,2.88,2.88,0,0,1,.78-1,3.09,3.09,0,0,1,1.13-.57,5,5,0,0,1,1.35-.18h5.07v10.2h-2.26v-3.84h-1.61l-2.75,3.84h-2.84Zm4.07-1.48V95.62h-2.24a5.52,5.52,0,0,0-.71,0,1.7,1.7,0,0,0-.6.2,1.21,1.21,0,0,0-.43.41,1.36,1.36,0,0,0-.16.71,1.57,1.57,0,0,0,.17.77,1.36,1.36,0,0,0,.44.48,1.58,1.58,0,0,0,.64.24,3.67,3.67,0,0,0,.75.07Z" transform="translate(-4.05 -5.23)"/><path class="cls-1" d="M388.73,104.29a5.37,5.37,0,0,1-2.14-.41,4.45,4.45,0,0,1-1.59-1.12,4.81,4.81,0,0,1-1-1.68,6.08,6.08,0,0,1-.35-2.07,6.37,6.37,0,0,1,.35-2.12,5,5,0,0,1,1-1.71A4.37,4.37,0,0,1,386.59,94a5.21,5.21,0,0,1,2.14-.42,5.36,5.36,0,0,1,1.61.24,4.57,4.57,0,0,1,1.37.71,3.8,3.8,0,0,1,1,1.15,4,4,0,0,1,.49,1.57H391a1.79,1.79,0,0,0-.26-.71,2.08,2.08,0,0,0-.51-.56,2.38,2.38,0,0,0-.68-.38,2.45,2.45,0,0,0-.81-.13,2.63,2.63,0,0,0-1.3.29,2.43,2.43,0,0,0-.87.78,3.48,3.48,0,0,0-.48,1.13,5.51,5.51,0,0,0-.16,1.3,5.14,5.14,0,0,0,.16,1.24,3.41,3.41,0,0,0,.48,1.1,2.52,2.52,0,0,0,.87.78,2.74,2.74,0,0,0,1.3.29,2.11,2.11,0,0,0,1.63-.63,2.92,2.92,0,0,0,.72-1.66h2.2a5.18,5.18,0,0,1-.45,1.74,4.16,4.16,0,0,1-.95,1.3,4,4,0,0,1-1.39.83A5.2,5.2,0,0,1,388.73,104.29Z" transform="translate(-4.05 -5.23)"/><path class="cls-1" d="M396.44,104.17a2.64,2.64,0,0,1-1-.17v-1.82l.17,0h.18a1.22,1.22,0,0,0,.9-.35,2.49,2.49,0,0,0,.56-1.12,11.71,11.71,0,0,0,.26-2c.05-.8.07-1.77.07-2.89V93.86h7.46v10.2h-2.27V95.75h-3c0,1.18-.07,2.28-.12,3.31a13.08,13.08,0,0,1-.38,2.68,4,4,0,0,1-1,1.79A2.51,2.51,0,0,1,396.44,104.17Z" transform="translate(-4.05 -5.23)"/><path class="cls-1" d="M410.48,104.25a2.3,2.3,0,0,1-.67-.1,2.17,2.17,0,0,1-.44-.19v-1.81a3,3,0,0,0,.38.15,2.23,2.23,0,0,0,.56.06,1.12,1.12,0,0,0,1.24-.84l-4.14-7.66H410l2.81,5.32,2.1-5.32h2.37L414,101.35a9,9,0,0,1-.7,1.33,3.47,3.47,0,0,1-.78.9,2.65,2.65,0,0,1-.93.51A3.83,3.83,0,0,1,410.48,104.25Z" transform="translate(-4.05 -5.23)"/><path class="cls-1" d="M422.54,98.35l-4-4.49h2.68l3.62,4.2v-4.2h2.19v4.19l3.62-4.19h2.67l-4,4.43,4.37,5.77h-2.81l-3.28-4.45-.58.67v3.78h-2.19v-3.78l-.71-.66L421,104.06h-2.8Z" transform="translate(-4.05 -5.23)"/><path class="cls-1" d="M436.11,93.86h7.68v1.85h-5.41v1.92h2.7a5.59,5.59,0,0,1,1.45.19,3.12,3.12,0,0,1,1.15.58,2.68,2.68,0,0,1,.78,1,3.32,3.32,0,0,1,.28,1.43,3.51,3.51,0,0,1-.27,1.45,2.8,2.8,0,0,1-.78,1,3.08,3.08,0,0,1-1.19.58,5.75,5.75,0,0,1-1.54.19h-4.85Zm4.61,8.37a2.37,2.37,0,0,0,1.29-.3,1.28,1.28,0,0,0,.46-1.13,1.67,1.67,0,0,0-.13-.67,1.11,1.11,0,0,0-.37-.43,1.63,1.63,0,0,0-.57-.24,3.08,3.08,0,0,0-.7-.07h-2.32v2.84Z" transform="translate(-4.05 -5.23)"/><path class="cls-1" d="M450.55,93.86h2.33l3.87,10.2h-2.37l-.78-2.27h-3.86l-.81,2.27h-2.29Zm2.46,6.26-1.3-3.74h0l-1.35,3.74Z" transform="translate(-4.05 -5.23)"/><path class="cls-1" d="M477,17.89a9.3,9.3,0,0,1,2.23-3A9.91,9.91,0,0,1,482.47,13a11.28,11.28,0,0,1,7.66,0,10.06,10.06,0,0,1,3.22,1.92,9.55,9.55,0,0,1,2.22,10.89,9.47,9.47,0,0,1-2.22,3,10.06,10.06,0,0,1-3.22,1.92,11.44,11.44,0,0,1-7.66,0,9.91,9.91,0,0,1-3.21-1.92,9.5,9.5,0,0,1-2.23-3,9.2,9.2,0,0,1-.82-4A9.19,9.19,0,0,1,477,17.89Zm2.44,7A7.41,7.41,0,0,0,481,27.23a7.22,7.22,0,0,0,2.36,1.57,7.74,7.74,0,0,0,5.78,0,7.18,7.18,0,0,0,2.35-1.57,7.6,7.6,0,0,0,2.18-5.41,7.4,7.4,0,0,0-.59-3,7.28,7.28,0,0,0-3.94-3.92,7.74,7.74,0,0,0-5.78,0A7.36,7.36,0,0,0,481,16.46a7.28,7.28,0,0,0-1.57,2.36,7.57,7.57,0,0,0-.58,3A7.67,7.67,0,0,0,479.47,24.84Zm7.07-8.38a5.89,5.89,0,0,1,3.19.72,2.66,2.66,0,0,1,1.12,2.45,3.38,3.38,0,0,1-.22,1.26,2.3,2.3,0,0,1-.62.86,2.94,2.94,0,0,1-.92.51,4.53,4.53,0,0,1-1.13.23l2.94,4.67h-2.29l-2.68-4.57h-1.36v4.57h-2.19V16.46Zm0,4.47a3.83,3.83,0,0,0,1.55-.26c.4-.16.61-.57.61-1.22a1.05,1.05,0,0,0-.21-.69,1.47,1.47,0,0,0-.54-.4,3.2,3.2,0,0,0-.74-.19,7.09,7.09,0,0,0-.77-.05h-1.84v2.81Z" transform="translate(-4.05 -5.23)"/><path class="cls-2" d="M19.12,65.71q.6,5.37,4.49,7.52A19.06,19.06,0,0,0,33,75.38a39.28,39.28,0,0,0,4.31-.27,20.51,20.51,0,0,0,4.56-1,8.59,8.59,0,0,0,3.49-2.2,5,5,0,0,0,1.24-3.82,5.22,5.22,0,0,0-1.89-3.87,13.66,13.66,0,0,0-4.56-2.42,47.49,47.49,0,0,0-6.32-1.56c-2.37-.43-4.78-.89-7.22-1.4A71.5,71.5,0,0,1,19.3,57,24.72,24.72,0,0,1,13,54.1a14.18,14.18,0,0,1-2.3-1.9L8,65.71Z" transform="translate(-4.05 -5.23)"/><path class="cls-2" d="M56.13,83.52a24.17,24.17,0,0,0,4.46-4.69,19.69,19.69,0,0,0,3.58-11.77,18.69,18.69,0,0,0-2.57-9.9,20.51,20.51,0,0,0-5.47-5.86V47.52l6.09,0-.11-4.65a23.23,23.23,0,0,0-3.9-10.49,25.43,25.43,0,0,0-2.08-2.53V26.93H68.9v7.52h.24a16.1,16.1,0,0,1,7.92-6.93,28.51,28.51,0,0,1,11-2.1,31.75,31.75,0,0,1,12.59,2.32,24.62,24.62,0,0,1,8.93,6.34,26.81,26.81,0,0,1,5.32,9.4A36.61,36.61,0,0,1,116.67,55a37.23,37.23,0,0,1-1.16,9.2H120l7.48-37.61L20.07,5.23,15.13,30.07l.38-.22a28.79,28.79,0,0,1,8.28-2.63,53.54,53.54,0,0,1,8.69-.75,43.54,43.54,0,0,1,9.05.91,26.1,26.1,0,0,1,7.81,3,18.31,18.31,0,0,1,5.79,5.32,17.38,17.38,0,0,1,2.9,7.9H44q-1-4.41-4.44-5.91a19.89,19.89,0,0,0-8-1.51,29.8,29.8,0,0,0-3.37.22,16.94,16.94,0,0,0-3.67.8,7.86,7.86,0,0,0-2.89,1.72,3.88,3.88,0,0,0-1.19,3,4.47,4.47,0,0,0,1.72,3.65,13.8,13.8,0,0,0,4.49,2.32A47.35,47.35,0,0,0,33,49.36q3.54.64,7.33,1.4c2.44.51,4.85,1.11,7.21,1.83a24.18,24.18,0,0,1,6.33,2.9,14.59,14.59,0,0,1,4.49,4.63A12.84,12.84,0,0,1,60,67a14,14,0,0,1-2.48,8.38A18.93,18.93,0,0,1,51.11,81a31.08,31.08,0,0,1-8.81,3.12,49.27,49.27,0,0,1-9.58,1A45.54,45.54,0,0,1,22,83.87a25.9,25.9,0,0,1-8.52-3.6,18,18,0,0,1-5.67-6,13.88,13.88,0,0,1-1-2.24L4.05,85.75,56.13,96.11Z" transform="translate(-4.05 -5.23)"/><path class="cls-2" d="M93.61,36.77a15.59,15.59,0,0,0-7.33-1.67q-8.5,0-12.83,5.38T69.14,54.77a26,26,0,0,0,1.12,7.8,17,17,0,0,0,3.37,6.18,16.1,16.1,0,0,0,12.65,5.59,16.25,16.25,0,0,0,7.81-1.72,16,16,0,0,0,5.26-4.46,17.47,17.47,0,0,0,3-6.24,29,29,0,0,0,.88-7.15,25.3,25.3,0,0,0-1.06-7.31,19.15,19.15,0,0,0-3.19-6.29A16.12,16.12,0,0,0,93.61,36.77Z" transform="translate(-4.05 -5.23)"/><path class="cls-2" d="M109.74,86.58V75.69A23.93,23.93,0,0,1,102,81.6,26.49,26.49,0,0,1,90.3,84a36.82,36.82,0,0,1-5.91-.49A27.26,27.26,0,0,1,78.71,82a22.56,22.56,0,0,1-5-2.74,15.91,15.91,0,0,1-3.85-3.92h-.23V98.79l41.81,8.32,4.08-20.53Z" transform="translate(-4.05 -5.23)"/><rect class="cls-2" x="110.8" y="65.4" width="10.48" height="10.48"/></svg>